<svg version="1.1" xmlns="http://www.w3.org/2000/svg" xmlns:xlink="http://www.w3.org/1999/xlink" xmlns:i="http://ns.adobe.com/AdobeIllustrator/10.0/" xmlns:sketch="http://www.bohemiancoding.com/sketch/ns" height="100%" width="100%" x="0px" y="0px" viewBox="0 0 640 480" xml:space="preserve" preserveAspectRatio="xMidYMid meet" class="">{{text2Gradient}}<rect x="0px" y="0px" width="100%" height="100%" fill="none"/><g class="logo-container-box logoContainerBox" transform="scale(0.99) translate(3.2323156029286793,2.424227165453374)"><g class="containerBody" transform="scale(0.9137295654997964) translate(30.21304554961125,57.61142524497211)" ><g class="sampleIconBox" transform="scale(1) translate(0,0)"><g class="sampleIcons_1" transform="scale(2.5798279887856466) translate(74.2007047165008,-0.9577228001185745)" fill="#ffffff"><path fill-rule="evenodd" clip-rule="evenodd" d="M98.268,14.229c1.127,6.534-0.395,12.284-0.635,17.58  c-0.086,1.871,0.329,3.884,0,5.719c-0.109,0.607-0.536,1.007-0.848,1.695c-0.265,0.585-0.383,1.362-0.635,1.906  c-0.285,0.612-0.609,1.118-0.848,1.694c-0.482,1.168-0.692,2.464-1.06,4.024c-0.146,0.629-0.49,1.271-0.635,1.907  c-0.334,1.458-0.396,2.905-0.848,4.024c-0.221,0.548-0.506,0.968-0.848,1.482c-0.686,1.034-1.893,2.603-2.753,3.812  c-0.415,0.583-1.065,1.093-1.271,1.694c-0.169,0.497-0.134,1.372-0.212,1.906c-0.104,0.724-0.126,1.356-0.211,1.907  c-0.188,1.195-0.219,2.509-0.636,3.601c-0.238,0.624-0.725,1.03-1.271,1.694c-1.047,1.271-2.217,2.621-3.389,4.024  c-0.974,1.164-2.001,3.466-2.754,5.083c-0.698,1.498-1.313,2.913-1.906,4.448c-1.149,0.803-2.49,1.859-3.813,2.965  c-0.468,0.391-0.824,0.543-1.481,1.06c-0.302,0.236-0.433,0.55-0.636,0.635c-0.375,0.156-1.096,0.091-1.695,0.212  c-2.248,0.456-5.189,1.131-7.837,1.694c-1.081,0.23-2.266,0.617-3.177,0.636c-1.878,0.039-3.786-0.678-5.507-0.847  c-1.106,0.518-2.195,1.052-3.389,1.482c-0.783-0.559-1.659-1.024-2.542-1.482c-1.977,0.16-3.952,1.059-6.143,1.059  c-1.877,0-4.106-0.803-6.354-1.271c-2.305-0.479-4.804-0.621-6.354-1.271c-0.908-0.381-1.499-1.085-2.33-1.694  c-0.286-0.21-0.635-0.257-0.847-0.424c-0.249-0.193-0.388-0.65-0.636-0.847c-0.28-0.222-0.587-0.219-0.847-0.424  c-0.48-0.376-0.864-0.966-1.483-1.059c-0.554-1.561-1.221-2.987-1.906-4.449c-0.665-1.417-1.306-2.951-2.119-4.235  c-1.477-2.335-3.822-4.192-5.507-6.566c-0.083-1.771-0.584-3.789-0.847-5.507c-0.093-0.609-0.031-1.365-0.212-1.906  c-0.154-0.462-0.315-0.381-0.635-0.848c-0.207-0.301-0.211-0.764-0.424-1.059c-0.116-0.162-0.293-0.228-0.423-0.424  c-0.132-0.199-0.402-0.495-0.636-0.848c-0.132-0.198-0.402-0.495-0.635-0.847c-0.158-0.238-0.542-0.856-0.848-1.271  c-0.766-1.042-1.064-1.081-1.482-2.755c-0.391-1.564-1.033-4.039-1.482-5.93c-0.182-0.765-0.186-1.61-0.424-2.33  c-0.423-1.28-1.442-2.822-2.118-4.236c-0.635-1.33-0.745-3.245-0.847-5.507c-0.059-1.292,0.069-2.564,0-3.813  c-0.133-2.402-0.688-4.848-0.847-7.413c-0.166-2.677,0.158-5.3,0.212-8.261c1.641,3.776,2.779,7.881,4.236,12.073  c0.183,0.528,0.414,1.225,0.635,1.695c0.715,1.518,2.003,2.75,2.965,4.024c1.002,1.328,1.81,2.746,2.965,3.812  c1.229,0.183,2.465,0.358,3.812,0.423c-0.062,1.898,0.375,3.297,0.212,5.295c0.876,0.89,2.303,1.227,3.601,1.694  c0.804,3.079,1.974,5.792,2.753,8.896c2.078-0.817,4.268-1.521,6.143-2.542c1.593,3.067,2.93,6.391,4.448,9.531  c1.471-0.648,3.278-0.958,4.66-1.694c1.108,0.516,1.708,1.54,2.754,2.118c2.14-2.125,4.371-4.021,7.202-6.143  c0.16-0.12,0.74-0.437,1.271-0.847c1.337-1.036,0.901-1.294,2.754,0c0.256,0.178,0.418,0.489,0.635,0.635  c0.99,0.663,1.87,1.385,2.966,2.118c1.535,1.028,2.996,2.628,4.236,4.024c1.199-0.424,1.595-1.653,2.753-2.118  c1.619,0.429,3.042,1.053,4.66,1.482c1.611-2.907,2.935-6.103,4.236-9.319c2.173,0.651,3.893,1.756,6.143,2.329  c1.216-2.666,1.854-5.912,2.966-8.683c1.09-0.534,2.298-0.949,3.389-1.483c0.008-1.898,0.355-3.457,0.212-5.507  c1.229-0.183,2.465-0.358,3.812-0.423c0.735-0.422,1-1.253,1.483-1.906c0.77-1.042,1.682-2.052,2.542-3.177  c0.125-0.164,0.073-0.451,0.211-0.636c0.444-0.595,1.156-1.065,1.483-1.694c0.276-0.531,0.382-1.212,0.635-1.906  C95.411,22.948,96.881,18.365,98.268,14.229z"></path><path fill-rule="evenodd" clip-rule="evenodd" d="M50.398,25.667c1.782-0.767,2.976-2.069,4.872-2.33  c1.353-0.186,3.021,0.152,4.448,0.424c3.232,0.615,5.703,1.991,8.261,3.601c0.29,0.183,0.995,0.803,1.059,0.847  c1.237,0.864,2.977,2.524,4.024,3.812c0.182,0.224,0.301,0.326,0.505,0.583c0.134,0.167,0.444,0.515,0.555,0.688  c0.365,0.575,0.898,1.896,1.271,2.753c0.482,1.113,1.296,3.206,1.482,4.872c0.338,3.025-0.557,6.095-0.212,9.532  c-1.477-0.558-2.624-0.9-3.812-1.907c-2.015-1.706-0.801-6.353-2.966-8.26c-0.318-0.281-0.485-0.453-0.95-0.756  c-0.08-0.052-0.462-0.272-0.532-0.303c-0.436-0.196-1.714-0.937-2.329-1.059c-1.887-0.375-4.48,0.193-6.779,0.424  c-2.229,0.224-4.687,0.819-6.565,0.423c-1.12-0.236-1.685-0.994-2.542-1.695c-1.45,2.253-5.669,1.422-9.107,1.059  c-2.342-0.247-4.68-0.763-6.566-0.423c-1.368,0.247-4.168,1.963-4.872,3.389c-0.909,1.844-0.264,4.036-1.271,5.931  c-0.432,0.813-0.699,0.896-1.483,1.483c-0.665,0.497-1.895,0.947-2.965,1.694c-0.051-3.322-0.659-6.736-0.212-10.379  c0.115-0.935,0.548-2.326,1.059-3.601c0.219-0.545,0.566-0.89,0.847-1.482c0.568-1.194,0.846-1.924,1.694-2.965  c1.034-1.266,2.308-2.77,3.813-3.812c0.076-0.053,0.78-0.817,0.847-0.847c0.108-0.049,1.898-1.026,2.33-1.271  c2.123-1.206,4.71-2.373,8.049-2.754c1.058-0.121,2.124-0.389,3.177-0.211c0.817,0.138,1.729,0.85,2.542,1.271  C48.838,24.794,49.697,25.092,50.398,25.667z"></path></g></g><g class="sampleTexts_1" transform="scale(1) translate(0,-29.939978027343756)"><g class="logo--name svgLogoName_1 logoNameBox" transform="scale(1) translate(68.02499389648438,326.4)" fill="#ffffff"><path d="M29.29 0L29.29 0L0 0L0-46.86L29.29-46.86L29.29-46.86Q36.08-46.86 40.30-43.50L40.30-43.50L40.30-43.50Q44.90-39.83 44.90-33.19L44.90-33.19L44.90-33.19Q44.90-27.49 41-23.43L41-23.43L41-23.43Q44.90-19.45 44.90-13.67L44.90-13.67L44.90-13.67Q44.90 0 29.29 0ZM7.81-27.33L33.19-27.33L33.19-27.33Q35.22-27.33 36.24-29.36L36.24-29.36L36.24-29.36Q37.10-31.00 37.10-33.19L37.10-33.19L37.10-33.19Q37.10-35.14 36.16-36.94L36.16-36.94L36.16-36.94Q34.99-39.05 33.19-39.05L33.19-39.05L7.81-39.05L7.81-27.33ZM7.81-7.81L29.29-7.81L29.29-7.81Q33.11-7.81 34.67-8.59L34.67-8.59L34.67-8.59Q37.10-9.84 37.10-13.67L37.10-13.67L37.10-13.67Q37.10-17.57 34.60-18.82L34.60-18.82L34.60-18.82Q33.19-19.52 29.29-19.52L29.29-19.52L7.81-19.52L7.81-7.81ZM58.09-27.33L58.09-27.33L96.67-27.33L96.67-19.52L58.09-19.52L58.09-19.52Q59.42-14.37 63.67-11.09L63.67-11.09L63.67-11.09Q67.93-7.81 73.24-7.81L73.24-7.81L96.67-7.81L96.67 0L73.24 0L73.24 0Q63.48 0 56.64-6.83L56.64-6.83L56.64-6.83Q49.81-13.67 49.81-23.43L49.81-23.43L49.81-23.43Q49.81-33.19 56.64-40.02L56.64-40.02L56.64-40.02Q63.48-46.86 73.24-46.86L73.24-46.86L96.67-46.86L96.67-39.05L73.24-39.05L73.24-39.05Q67.93-39.05 63.67-35.77L63.67-35.77L63.67-35.77Q59.42-32.49 58.09-27.33ZM148.43-23.43L148.43 0L140.62 0L140.62-11.71L109.38-11.71L109.38 0L101.57 0L101.57-23.43L101.57-23.43Q101.57-33.19 108.40-40.02L108.40-40.02L108.40-40.02Q115.24-46.86 125-46.86L125-46.86L125-46.86Q134.76-46.86 141.60-40.02L141.60-40.02L141.60-40.02Q148.43-33.19 148.43-23.43L148.43-23.43ZM109.38-19.52L140.62-19.52L140.62-23.43L140.62-23.43Q140.62-29.99 136.09-34.52L136.09-34.52L136.09-34.52Q131.56-39.05 125-39.05L125-39.05L125-39.05Q118.44-39.05 113.91-34.52L113.91-34.52L113.91-34.52Q109.38-29.99 109.38-23.43L109.38-23.43L109.38-19.52ZM161.14-39.05L161.14-23.43L184.57-23.43L184.57-23.43Q187.77-23.43 190.08-25.73L190.08-25.73L190.08-25.73Q192.38-28.04 192.38-31.24L192.38-31.24L192.38-31.24Q192.38-34.44 190.08-36.74L190.08-36.74L190.08-36.74Q187.77-39.05 184.57-39.05L184.57-39.05L161.14-39.05ZM190.19-16.63L190.19-16.63L200.19 0L192.38 0L183.01-15.62L161.14-15.62L161.14 0L153.33 0L153.33-46.86L184.57-46.86L184.57-46.86Q191.13-46.86 195.66-42.33L195.66-42.33L195.66-42.33Q200.19-37.80 200.19-31.24L200.19-31.24L200.19-31.24Q200.19-26.40 197.46-22.37L197.46-22.37L197.46-22.37Q194.72-18.35 190.19-16.63ZM228.52 0L228.52 0L205.10 0L205.10-46.86L228.52-46.86L228.52-46.86Q238.29-46.86 245.12-40.02L245.12-40.02L245.12-40.02Q251.95-33.19 251.95-23.43L251.95-23.43L251.95-23.43Q251.95-13.67 245.12-6.83L245.12-6.83L245.12-6.83Q238.29 0 228.52 0ZM212.90-7.81L228.52-7.81L228.52-7.81Q235.08-7.81 239.61-12.34L239.61-12.34L239.61-12.34Q244.14-16.87 244.14-23.43L244.14-23.43L244.14-23.43Q244.14-29.99 239.61-34.52L239.61-34.52L239.61-34.52Q235.08-39.05 228.52-39.05L228.52-39.05L212.90-39.05L212.90-7.81ZM296.90-39.05L296.90-39.05L296.90-39.05Q293.70-39.05 291.40-36.74L291.40-36.74L291.40-36.74Q289.10-34.44 289.10-31.24L289.10-31.24L289.10 0L281.29 0L281.29-31.24L281.29-31.24Q281.29-37.80 285.82-42.33L285.82-42.33L285.82-42.33Q290.34-46.86 296.90-46.86L296.90-46.86L296.90-46.86Q303.93-46.86 308.62-41.55L308.62-41.55L308.62-41.55Q313.30-46.86 320.33-46.86L320.33-46.86L320.33-46.86Q326.89-46.86 331.42-42.33L331.42-42.33L331.42-42.33Q335.95-37.80 335.95-31.24L335.95-31.24L335.95 0L328.14 0L328.14-31.24L328.14-31.24Q328.14-34.44 325.84-36.74L325.84-36.74L325.84-36.74Q323.54-39.05 320.33-39.05L320.33-39.05L320.33-39.05Q317.13-39.05 314.83-36.74L314.83-36.74L314.83-36.74Q312.52-34.44 312.52-31.24L312.52-31.24L312.52 0L304.71 0L304.71-31.24L304.71-31.24Q304.71-34.44 302.41-36.74L302.41-36.74L302.41-36.74Q300.11-39.05 296.90-39.05ZM349.14-27.33L349.14-27.33L387.71-27.33L387.71-19.52L349.14-19.52L349.14-19.52Q350.46-14.37 354.72-11.09L354.72-11.09L354.72-11.09Q358.98-7.81 364.29-7.81L364.29-7.81L387.71-7.81L387.71 0L364.29 0L364.29 0Q354.52 0 347.69-6.83L347.69-6.83L347.69-6.83Q340.86-13.67 340.86-23.43L340.86-23.43L340.86-23.43Q340.86-33.19 347.69-40.02L347.69-40.02L347.69-40.02Q354.52-46.86 364.29-46.86L364.29-46.86L387.71-46.86L387.71-39.05L364.29-39.05L364.29-39.05Q358.98-39.05 354.72-35.77L354.72-35.77L354.72-35.77Q350.46-32.49 349.14-27.33ZM416.05 0L416.05 0L392.62 0L392.62-46.86L416.05-46.86L416.05-46.86Q425.81-46.86 432.64-40.02L432.64-40.02L432.64-40.02Q439.48-33.19 439.48-23.43L439.48-23.43L439.48-23.43Q439.48-13.67 432.64-6.83L432.64-6.83L432.64-6.83Q425.81 0 416.05 0ZM400.43-7.81L416.05-7.81L416.05-7.81Q422.61-7.81 427.14-12.34L427.14-12.34L427.14-12.34Q431.67-16.87 431.67-23.43L431.67-23.43L431.67-23.43Q431.67-29.99 427.14-34.52L427.14-34.52L427.14-34.52Q422.61-39.05 416.05-39.05L416.05-39.05L400.43-39.05L400.43-7.81ZM444.38 0L444.38-46.86L452.19-46.86L452.19 0L444.38 0ZM503.95-23.43L503.95 0L496.14 0L496.14-11.71L464.90-11.71L464.90 0L457.10 0L457.10-23.43L457.10-23.43Q457.10-33.19 463.93-40.02L463.93-40.02L463.93-40.02Q470.76-46.86 480.52-46.86L480.52-46.86L480.52-46.86Q490.29-46.86 497.12-40.02L497.12-40.02L497.12-40.02Q503.95-33.19 503.95-23.43L503.95-23.43ZM464.90-19.52L496.14-19.52L496.14-23.43L496.14-23.43Q496.14-29.99 491.61-34.52L491.61-34.52L491.61-34.52Q487.08-39.05 480.52-39.05L480.52-39.05L480.52-39.05Q473.96-39.05 469.43-34.52L469.43-34.52L469.43-34.52Q464.90-29.99 464.90-23.43L464.90-23.43L464.90-19.52Z"/></g><g id="" class="logo--name svgSloganText_1 sloganBox" transform="scale(1) translate(320,345.6)" fill="#ffffff"></g></g></g></g></svg>